<?xml version="1.0" standalone="no"?>
<!DOCTYPE svg PUBLIC "-//W3C//DTD SVG 20010904//EN"
 "http://www.w3.org/TR/2001/REC-SVG-20010904/DTD/svg10.dtd">
<svg version="1.0" xmlns="http://www.w3.org/2000/svg"
 width="38.000000pt" height="36.000000pt" viewBox="0 0 38.000000 36.000000"
 preserveAspectRatio="xMidYMid meet">

<g transform="translate(0.000000,36.000000) scale(0.100000,-0.100000)"
fill="#000000" stroke="none">
<path d="M190 253 c-25 -9 -60 -46 -59 -62 0 -14 1 -14 6 -1 10 26 36 50 55
50 10 0 18 5 18 10 0 6 -1 10 -2 9 -2 0 -10 -3 -18 -6z"/>
<path d="M227 244 c7 -3 2 -14 -13 -29 -31 -31 -30 -59 1 -90 l24 -25 -33 0
c-32 0 -57 18 -69 50 -5 13 -6 13 -6 -1 -1 -17 34 -52 62 -62 9 -4 30 -2 45 4
l27 11 -27 14 c-48 25 -46 94 3 109 17 6 19 9 8 16 -8 5 -18 8 -24 8 -5 0 -5
-3 2 -5z"/>
</g>
</svg>
